<svg xmlns="http://www.w3.org/2000/svg" viewBox="0 0 1251 467">
<style>
  .bg { fill: #fafafa; }
  .key-body { fill: #ffffff; }
  .key-shadow { fill: rgba(0,0,0,0.04); }
  .key-label { fill: #525252; font-weight: 600; }
  .footer { fill: #a3a3a3; }
  @media (prefers-color-scheme: dark) {
    .bg { fill: #171717; }
    .key-body { fill: #2a2a2a; }
    .key-shadow { fill: rgba(0,0,0,0.15); }
    .key-label { fill: #d4d4d4; }
    .footer { fill: #525252; }
  }
</style>
<rect class="bg" width="1251" height="467"/>
<g transform="translate(29.502522159765384,97.89692684282409) rotate(15,34.999999999999645,35.00000000000021)">
  <path class="key-shadow" d="M 6,2 L 64,2 Q 68,2 68,6 L 68,64 Q 68,68 64,68 L 6,68 Q 2,68 2,64 L 2,6 Q 2,2 6,2 Z" transform="translate(0.5,1)"/>
  <path class="key-body" d="M 6,2 L 64,2 Q 68,2 68,6 L 68,64 Q 68,68 64,68 L 6,68 Q 2,68 2,64 L 2,6 Q 2,2 6,2 Z" stroke="#fb923c" stroke-width="1.5"/>
  <text x="35" y="36" text-anchor="middle" dominant-baseline="central" font-family="system-ui, -apple-system, sans-serif" font-size="14" class="key-label">0</text>
</g>
<g transform="translate(47.61985215976537,30.28210684282367) rotate(15,35.000000000000014,35)">
  <path class="key-shadow" d="M 6,2 L 64,2 Q 68,2 68,6 L 68,64 Q 68,68 64,68 L 6,68 Q 2,68 2,64 L 2,6 Q 2,2 6,2 Z" transform="translate(0.5,1)"/>
  <path class="key-body" d="M 6,2 L 64,2 Q 68,2 68,6 L 68,64 Q 68,68 64,68 L 6,68 Q 2,68 2,64 L 2,6 Q 2,2 6,2 Z" stroke="#fb923c" stroke-width="1.5"/>
  <text x="35" y="36" text-anchor="middle" dominant-baseline="central" font-family="system-ui, -apple-system, sans-serif" font-size="14" class="key-label">1</text>
</g>
<g transform="translate(115.23466,48.39944000000014) rotate(15,35,34.99999999999993)">
  <path class="key-shadow" d="M 6,2 L 64,2 Q 68,2 68,6 L 68,64 Q 68,68 64,68 L 6,68 Q 2,68 2,64 L 2,6 Q 2,2 6,2 Z" transform="translate(0.5,1)"/>
  <path class="key-body" d="M 6,2 L 64,2 Q 68,2 68,6 L 68,64 Q 68,68 64,68 L 6,68 Q 2,68 2,64 L 2,6 Q 2,2 6,2 Z" stroke="#fb923c" stroke-width="1.5"/>
  <text x="35" y="36" text-anchor="middle" dominant-baseline="central" font-family="system-ui, -apple-system, sans-serif" font-size="14" class="key-label">2</text>
</g>
<g transform="translate(186.66300999999999,98.77851) rotate(20,35,34.99999999999999)">
  <path class="key-shadow" d="M 6,2 L 64,2 Q 68,2 68,6 L 68,64 Q 68,68 64,68 L 6,68 Q 2,68 2,64 L 2,6 Q 2,2 6,2 Z" transform="translate(0.5,1)"/>
  <path class="key-body" d="M 6,2 L 64,2 Q 68,2 68,6 L 68,64 Q 68,68 64,68 L 6,68 Q 2,68 2,64 L 2,6 Q 2,2 6,2 Z" stroke="#fb923c" stroke-width="1.5"/>
  <text x="35" y="36" text-anchor="middle" dominant-baseline="central" font-family="system-ui, -apple-system, sans-serif" font-size="14" class="key-label">3</text>
</g>
<g transform="translate(210.60448,33) rotate(20,35,35)">
  <path class="key-shadow" d="M 6,2 L 64,2 Q 68,2 68,6 L 68,64 Q 68,68 64,68 L 6,68 Q 2,68 2,64 L 2,6 Q 2,2 6,2 Z" transform="translate(0.5,1)"/>
  <path class="key-body" d="M 6,2 L 64,2 Q 68,2 68,6 L 68,64 Q 68,68 64,68 L 6,68 Q 2,68 2,64 L 2,6 Q 2,2 6,2 Z" stroke="#fb923c" stroke-width="1.5"/>
  <text x="35" y="36" text-anchor="middle" dominant-baseline="central" font-family="system-ui, -apple-system, sans-serif" font-size="14" class="key-label">4</text>
</g>
<g transform="translate(282.68327,39.63131) rotate(20,35,34.99999999999999)">
  <path class="key-shadow" d="M 6,2 L 64,2 Q 68,2 68,6 L 68,64 Q 68,68 64,68 L 6,68 Q 2,68 2,64 L 2,6 Q 2,2 6,2 Z" transform="translate(0.5,1)"/>
  <path class="key-body" d="M 6,2 L 64,2 Q 68,2 68,6 L 68,64 Q 68,68 64,68 L 6,68 Q 2,68 2,64 L 2,6 Q 2,2 6,2 Z" stroke="#fb923c" stroke-width="1.5"/>
  <text x="35" y="36" text-anchor="middle" dominant-baseline="central" font-family="system-ui, -apple-system, sans-serif" font-size="14" class="key-label">5</text>
</g>
<g transform="translate(340.90136,84.34486) rotate(20,35,35)">
  <path class="key-shadow" d="M 6,2 L 64,2 Q 68,2 68,6 L 68,64 Q 68,68 64,68 L 6,68 Q 2,68 2,64 L 2,6 Q 2,2 6,2 Z" transform="translate(0.5,1)"/>
  <path class="key-body" d="M 6,2 L 64,2 Q 68,2 68,6 L 68,64 Q 68,68 64,68 L 6,68 Q 2,68 2,64 L 2,6 Q 2,2 6,2 Z" stroke="#fb923c" stroke-width="1.5"/>
  <text x="35" y="36" text-anchor="middle" dominant-baseline="central" font-family="system-ui, -apple-system, sans-serif" font-size="14" class="key-label">6</text>
</g>
<g transform="translate(839.0986399999999,84.34485999999973) rotate(-20,35,35.00000000000028)">
  <path class="key-shadow" d="M 6,2 L 64,2 Q 68,2 68,6 L 68,64 Q 68,68 64,68 L 6,68 Q 2,68 2,64 L 2,6 Q 2,2 6,2 Z" transform="translate(0.5,1)"/>
  <path class="key-body" d="M 6,2 L 64,2 Q 68,2 68,6 L 68,64 Q 68,68 64,68 L 6,68 Q 2,68 2,64 L 2,6 Q 2,2 6,2 Z" stroke="#38bdf8" stroke-width="1.5"/>
  <text x="35" y="36" text-anchor="middle" dominant-baseline="central" font-family="system-ui, -apple-system, sans-serif" font-size="14" class="key-label">7</text>
</g>
<g transform="translate(897.31673,39.631309999999715) rotate(-20,35,35.00000000000028)">
  <path class="key-shadow" d="M 6,2 L 64,2 Q 68,2 68,6 L 68,64 Q 68,68 64,68 L 6,68 Q 2,68 2,64 L 2,6 Q 2,2 6,2 Z" transform="translate(0.5,1)"/>
  <path class="key-body" d="M 6,2 L 64,2 Q 68,2 68,6 L 68,64 Q 68,68 64,68 L 6,68 Q 2,68 2,64 L 2,6 Q 2,2 6,2 Z" stroke="#38bdf8" stroke-width="1.5"/>
  <text x="35" y="36" text-anchor="middle" dominant-baseline="central" font-family="system-ui, -apple-system, sans-serif" font-size="14" class="key-label">8</text>
</g>
<g transform="translate(969.39552,32.99999999999972) rotate(-20,35,35.00000000000028)">
  <path class="key-shadow" d="M 6,2 L 64,2 Q 68,2 68,6 L 68,64 Q 68,68 64,68 L 6,68 Q 2,68 2,64 L 2,6 Q 2,2 6,2 Z" transform="translate(0.5,1)"/>
  <path class="key-body" d="M 6,2 L 64,2 Q 68,2 68,6 L 68,64 Q 68,68 64,68 L 6,68 Q 2,68 2,64 L 2,6 Q 2,2 6,2 Z" stroke="#38bdf8" stroke-width="1.5"/>
  <text x="35" y="36" text-anchor="middle" dominant-baseline="central" font-family="system-ui, -apple-system, sans-serif" font-size="14" class="key-label">9</text>
</g>
<g transform="translate(993.33699,98.77850999999973) rotate(-20,35,35.00000000000027)">
  <path class="key-shadow" d="M 6,2 L 64,2 Q 68,2 68,6 L 68,64 Q 68,68 64,68 L 6,68 Q 2,68 2,64 L 2,6 Q 2,2 6,2 Z" transform="translate(0.5,1)"/>
  <path class="key-body" d="M 6,2 L 64,2 Q 68,2 68,6 L 68,64 Q 68,68 64,68 L 6,68 Q 2,68 2,64 L 2,6 Q 2,2 6,2 Z" stroke="#38bdf8" stroke-width="1.5"/>
  <text x="35" y="36" text-anchor="middle" dominant-baseline="central" font-family="system-ui, -apple-system, sans-serif" font-size="14" class="key-label">10</text>
</g>
<g transform="translate(1064.76534,48.39943999999993) rotate(-15,35,35.00000000000014)">
  <path class="key-shadow" d="M 6,2 L 64,2 Q 68,2 68,6 L 68,64 Q 68,68 64,68 L 6,68 Q 2,68 2,64 L 2,6 Q 2,2 6,2 Z" transform="translate(0.5,1)"/>
  <path class="key-body" d="M 6,2 L 64,2 Q 68,2 68,6 L 68,64 Q 68,68 64,68 L 6,68 Q 2,68 2,64 L 2,6 Q 2,2 6,2 Z" stroke="#38bdf8" stroke-width="1.5"/>
  <text x="35" y="36" text-anchor="middle" dominant-baseline="central" font-family="system-ui, -apple-system, sans-serif" font-size="14" class="key-label">11</text>
</g>
<g transform="translate(1132.380147840237,30.28210684282353) rotate(-15,35,35.00000000000014)">
  <path class="key-shadow" d="M 6,2 L 64,2 Q 68,2 68,6 L 68,64 Q 68,68 64,68 L 6,68 Q 2,68 2,64 L 2,6 Q 2,2 6,2 Z" transform="translate(0.5,1)"/>
  <path class="key-body" d="M 6,2 L 64,2 Q 68,2 68,6 L 68,64 Q 68,68 64,68 L 6,68 Q 2,68 2,64 L 2,6 Q 2,2 6,2 Z" stroke="#38bdf8" stroke-width="1.5"/>
  <text x="35" y="36" text-anchor="middle" dominant-baseline="central" font-family="system-ui, -apple-system, sans-serif" font-size="14" class="key-label">12</text>
</g>
<g transform="translate(1150.497477840237,97.89692684282444) rotate(-15,35,34.99999999999986)">
  <path class="key-shadow" d="M 6,2 L 64,2 Q 68,2 68,6 L 68,64 Q 68,68 64,68 L 6,68 Q 2,68 2,64 L 2,6 Q 2,2 6,2 Z" transform="translate(0.5,1)"/>
  <path class="key-body" d="M 6,2 L 64,2 Q 68,2 68,6 L 68,64 Q 68,68 64,68 L 6,68 Q 2,68 2,64 L 2,6 Q 2,2 6,2 Z" stroke="#38bdf8" stroke-width="1.5"/>
  <text x="35" y="36" text-anchor="middle" dominant-baseline="central" font-family="system-ui, -apple-system, sans-serif" font-size="14" class="key-label">13</text>
</g>
<g transform="translate(97.11733000000001,116.0142600000007) rotate(15,34.99999999999986,35)">
  <path class="key-shadow" d="M 6,2 L 64,2 Q 68,2 68,6 L 68,64 Q 68,68 64,68 L 6,68 Q 2,68 2,64 L 2,6 Q 2,2 6,2 Z" transform="translate(0.5,1)"/>
  <path class="key-body" d="M 6,2 L 64,2 Q 68,2 68,6 L 68,64 Q 68,68 64,68 L 6,68 Q 2,68 2,64 L 2,6 Q 2,2 6,2 Z" stroke="#fb923c" stroke-width="1.5"/>
  <text x="35" y="36" text-anchor="middle" dominant-baseline="central" font-family="system-ui, -apple-system, sans-serif" font-size="14" class="key-label">14</text>
</g>
<g transform="translate(162.72161,164.55695) rotate(20,35,35)">
  <path class="key-shadow" d="M 6,2 L 64,2 Q 68,2 68,6 L 68,64 Q 68,68 64,68 L 6,68 Q 2,68 2,64 L 2,6 Q 2,2 6,2 Z" transform="translate(0.5,1)"/>
  <path class="key-body" d="M 6,2 L 64,2 Q 68,2 68,6 L 68,64 Q 68,68 64,68 L 6,68 Q 2,68 2,64 L 2,6 Q 2,2 6,2 Z" stroke="#fb923c" stroke-width="1.5"/>
  <text x="35" y="36" text-anchor="middle" dominant-baseline="central" font-family="system-ui, -apple-system, sans-serif" font-size="14" class="key-label">15</text>
</g>
<g transform="translate(258.74186999999995,105.40974999999999) rotate(20,35,35)">
  <path class="key-shadow" d="M 6,2 L 64,2 Q 68,2 68,6 L 68,64 Q 68,68 64,68 L 6,68 Q 2,68 2,64 L 2,6 Q 2,2 6,2 Z" transform="translate(0.5,1)"/>
  <path class="key-body" d="M 6,2 L 64,2 Q 68,2 68,6 L 68,64 Q 68,68 64,68 L 6,68 Q 2,68 2,64 L 2,6 Q 2,2 6,2 Z" stroke="#fb923c" stroke-width="1.5"/>
  <text x="35" y="36" text-anchor="middle" dominant-baseline="central" font-family="system-ui, -apple-system, sans-serif" font-size="14" class="key-label">16</text>
</g>
<g transform="translate(316.95996,150.1233) rotate(20,35,35)">
  <path class="key-shadow" d="M 6,2 L 64,2 Q 68,2 68,6 L 68,64 Q 68,68 64,68 L 6,68 Q 2,68 2,64 L 2,6 Q 2,2 6,2 Z" transform="translate(0.5,1)"/>
  <path class="key-body" d="M 6,2 L 64,2 Q 68,2 68,6 L 68,64 Q 68,68 64,68 L 6,68 Q 2,68 2,64 L 2,6 Q 2,2 6,2 Z" stroke="#fb923c" stroke-width="1.5"/>
  <text x="35" y="36" text-anchor="middle" dominant-baseline="central" font-family="system-ui, -apple-system, sans-serif" font-size="14" class="key-label">17</text>
</g>
<g transform="translate(401.7655189967201,121.7881583455013) rotate(20,35,35)">
  <path class="key-shadow" d="M 6,2 L 64,2 Q 68,2 68,6 L 68,64 Q 68,68 64,68 L 6,68 Q 2,68 2,64 L 2,6 Q 2,2 6,2 Z" transform="translate(0.5,1)"/>
  <path class="key-body" d="M 6,2 L 64,2 Q 68,2 68,6 L 68,64 Q 68,68 64,68 L 6,68 Q 2,68 2,64 L 2,6 Q 2,2 6,2 Z" stroke="#fb923c" stroke-width="1.5"/>
  <text x="35" y="36" text-anchor="middle" dominant-baseline="central" font-family="system-ui, -apple-system, sans-serif" font-size="14" class="key-label">18</text>
</g>
<g transform="translate(778.2344810032798,121.7881583455006) rotate(-20,35.00000000000212,35.000000000000696)">
  <path class="key-shadow" d="M 6,2 L 64,2 Q 68,2 68,6 L 68,64 Q 68,68 64,68 L 6,68 Q 2,68 2,64 L 2,6 Q 2,2 6,2 Z" transform="translate(0.5,1)"/>
  <path class="key-body" d="M 6,2 L 64,2 Q 68,2 68,6 L 68,64 Q 68,68 64,68 L 6,68 Q 2,68 2,64 L 2,6 Q 2,2 6,2 Z" stroke="#38bdf8" stroke-width="1.5"/>
  <text x="35" y="36" text-anchor="middle" dominant-baseline="central" font-family="system-ui, -apple-system, sans-serif" font-size="14" class="key-label">19</text>
</g>
<g transform="translate(863.04004,150.1233) rotate(-20,35,35)">
  <path class="key-shadow" d="M 6,2 L 64,2 Q 68,2 68,6 L 68,64 Q 68,68 64,68 L 6,68 Q 2,68 2,64 L 2,6 Q 2,2 6,2 Z" transform="translate(0.5,1)"/>
  <path class="key-body" d="M 6,2 L 64,2 Q 68,2 68,6 L 68,64 Q 68,68 64,68 L 6,68 Q 2,68 2,64 L 2,6 Q 2,2 6,2 Z" stroke="#38bdf8" stroke-width="1.5"/>
  <text x="35" y="36" text-anchor="middle" dominant-baseline="central" font-family="system-ui, -apple-system, sans-serif" font-size="14" class="key-label">20</text>
</g>
<g transform="translate(921.2581299999999,105.40974999999999) rotate(-20,35,35)">
  <path class="key-shadow" d="M 6,2 L 64,2 Q 68,2 68,6 L 68,64 Q 68,68 64,68 L 6,68 Q 2,68 2,64 L 2,6 Q 2,2 6,2 Z" transform="translate(0.5,1)"/>
  <path class="key-body" d="M 6,2 L 64,2 Q 68,2 68,6 L 68,64 Q 68,68 64,68 L 6,68 Q 2,68 2,64 L 2,6 Q 2,2 6,2 Z" stroke="#38bdf8" stroke-width="1.5"/>
  <text x="35" y="36" text-anchor="middle" dominant-baseline="central" font-family="system-ui, -apple-system, sans-serif" font-size="14" class="key-label">21</text>
</g>
<g transform="translate(1017.27839,164.55695) rotate(-20,35,35)">
  <path class="key-shadow" d="M 6,2 L 64,2 Q 68,2 68,6 L 68,64 Q 68,68 64,68 L 6,68 Q 2,68 2,64 L 2,6 Q 2,2 6,2 Z" transform="translate(0.5,1)"/>
  <path class="key-body" d="M 6,2 L 64,2 Q 68,2 68,6 L 68,64 Q 68,68 64,68 L 6,68 Q 2,68 2,64 L 2,6 Q 2,2 6,2 Z" stroke="#38bdf8" stroke-width="1.5"/>
  <text x="35" y="36" text-anchor="middle" dominant-baseline="central" font-family="system-ui, -apple-system, sans-serif" font-size="14" class="key-label">22</text>
</g>
<g transform="translate(1082.88267,116.0142600000007) rotate(-15,35,35)">
  <path class="key-shadow" d="M 6,2 L 64,2 Q 68,2 68,6 L 68,64 Q 68,68 64,68 L 6,68 Q 2,68 2,64 L 2,6 Q 2,2 6,2 Z" transform="translate(0.5,1)"/>
  <path class="key-body" d="M 6,2 L 64,2 Q 68,2 68,6 L 68,64 Q 68,68 64,68 L 6,68 Q 2,68 2,64 L 2,6 Q 2,2 6,2 Z" stroke="#38bdf8" stroke-width="1.5"/>
  <text x="35" y="36" text-anchor="middle" dominant-baseline="central" font-family="system-ui, -apple-system, sans-serif" font-size="14" class="key-label">23</text>
</g>
<g transform="translate(79,183.6290100000007) rotate(15,34.99999999999986,35)">
  <path class="key-shadow" d="M 6,2 L 64,2 Q 68,2 68,6 L 68,64 Q 68,68 64,68 L 6,68 Q 2,68 2,64 L 2,6 Q 2,2 6,2 Z" transform="translate(0.5,1)"/>
  <path class="key-body" d="M 6,2 L 64,2 Q 68,2 68,6 L 68,64 Q 68,68 64,68 L 6,68 Q 2,68 2,64 L 2,6 Q 2,2 6,2 Z" stroke="#fb923c" stroke-width="1.5"/>
  <text x="35" y="36" text-anchor="middle" dominant-baseline="central" font-family="system-ui, -apple-system, sans-serif" font-size="14" class="key-label">24</text>
</g>
<g transform="translate(234.80047000000002,171.18826) rotate(20,35,34.999999999999986)">
  <path class="key-shadow" d="M 6,2 L 64,2 Q 68,2 68,6 L 68,64 Q 68,68 64,68 L 6,68 Q 2,68 2,64 L 2,6 Q 2,2 6,2 Z" transform="translate(0.5,1)"/>
  <path class="key-body" d="M 6,2 L 64,2 Q 68,2 68,6 L 68,64 Q 68,68 64,68 L 6,68 Q 2,68 2,64 L 2,6 Q 2,2 6,2 Z" stroke="#fb923c" stroke-width="1.5"/>
  <text x="35" y="36" text-anchor="middle" dominant-baseline="central" font-family="system-ui, -apple-system, sans-serif" font-size="14" class="key-label">25</text>
</g>
<g transform="translate(293.01849,215.90181) rotate(20,35,35)">
  <path class="key-shadow" d="M 6,2 L 64,2 Q 68,2 68,6 L 68,64 Q 68,68 64,68 L 6,68 Q 2,68 2,64 L 2,6 Q 2,2 6,2 Z" transform="translate(0.5,1)"/>
  <path class="key-body" d="M 6,2 L 64,2 Q 68,2 68,6 L 68,64 Q 68,68 64,68 L 6,68 Q 2,68 2,64 L 2,6 Q 2,2 6,2 Z" stroke="#fb923c" stroke-width="1.5"/>
  <text x="35" y="36" text-anchor="middle" dominant-baseline="central" font-family="system-ui, -apple-system, sans-serif" font-size="14" class="key-label">26</text>
</g>
<g transform="translate(377.82411899672013,187.5666683455013) rotate(20,35,35)">
  <path class="key-shadow" d="M 6,2 L 64,2 Q 68,2 68,6 L 68,64 Q 68,68 64,68 L 6,68 Q 2,68 2,64 L 2,6 Q 2,2 6,2 Z" transform="translate(0.5,1)"/>
  <path class="key-body" d="M 6,2 L 64,2 Q 68,2 68,6 L 68,64 Q 68,68 64,68 L 6,68 Q 2,68 2,64 L 2,6 Q 2,2 6,2 Z" stroke="#fb923c" stroke-width="1.5"/>
  <text x="35" y="36" text-anchor="middle" dominant-baseline="central" font-family="system-ui, -apple-system, sans-serif" font-size="14" class="key-label">27</text>
</g>
<g transform="translate(802.175881003282,187.5666683455013) rotate(-20,35,35)">
  <path class="key-shadow" d="M 6,2 L 64,2 Q 68,2 68,6 L 68,64 Q 68,68 64,68 L 6,68 Q 2,68 2,64 L 2,6 Q 2,2 6,2 Z" transform="translate(0.5,1)"/>
  <path class="key-body" d="M 6,2 L 64,2 Q 68,2 68,6 L 68,64 Q 68,68 64,68 L 6,68 Q 2,68 2,64 L 2,6 Q 2,2 6,2 Z" stroke="#38bdf8" stroke-width="1.5"/>
  <text x="35" y="36" text-anchor="middle" dominant-baseline="central" font-family="system-ui, -apple-system, sans-serif" font-size="14" class="key-label">28</text>
</g>
<g transform="translate(886.98151,215.90181) rotate(-20,35,35)">
  <path class="key-shadow" d="M 6,2 L 64,2 Q 68,2 68,6 L 68,64 Q 68,68 64,68 L 6,68 Q 2,68 2,64 L 2,6 Q 2,2 6,2 Z" transform="translate(0.5,1)"/>
  <path class="key-body" d="M 6,2 L 64,2 Q 68,2 68,6 L 68,64 Q 68,68 64,68 L 6,68 Q 2,68 2,64 L 2,6 Q 2,2 6,2 Z" stroke="#38bdf8" stroke-width="1.5"/>
  <text x="35" y="36" text-anchor="middle" dominant-baseline="central" font-family="system-ui, -apple-system, sans-serif" font-size="14" class="key-label">29</text>
</g>
<g transform="translate(945.19953,171.18826) rotate(-20,35,34.999999999999986)">
  <path class="key-shadow" d="M 6,2 L 64,2 Q 68,2 68,6 L 68,64 Q 68,68 64,68 L 6,68 Q 2,68 2,64 L 2,6 Q 2,2 6,2 Z" transform="translate(0.5,1)"/>
  <path class="key-body" d="M 6,2 L 64,2 Q 68,2 68,6 L 68,64 Q 68,68 64,68 L 6,68 Q 2,68 2,64 L 2,6 Q 2,2 6,2 Z" stroke="#38bdf8" stroke-width="1.5"/>
  <text x="35" y="36" text-anchor="middle" dominant-baseline="central" font-family="system-ui, -apple-system, sans-serif" font-size="14" class="key-label">30</text>
</g>
<g transform="translate(1101,183.6290100000007) rotate(-15,35,35)">
  <path class="key-shadow" d="M 6,2 L 64,2 Q 68,2 68,6 L 68,64 Q 68,68 64,68 L 6,68 Q 2,68 2,64 L 2,6 Q 2,2 6,2 Z" transform="translate(0.5,1)"/>
  <path class="key-body" d="M 6,2 L 64,2 Q 68,2 68,6 L 68,64 Q 68,68 64,68 L 6,68 Q 2,68 2,64 L 2,6 Q 2,2 6,2 Z" stroke="#38bdf8" stroke-width="1.5"/>
  <text x="35" y="36" text-anchor="middle" dominant-baseline="central" font-family="system-ui, -apple-system, sans-serif" font-size="14" class="key-label">31</text>
</g>
<g transform="translate(267.7393767575211,281.5854451331811) rotate(20,35,34.99999999999932)">
  <path class="key-shadow" d="M 6,2 L 64,2 Q 68,2 68,6 L 68,64 Q 68,68 64,68 L 6,68 Q 2,68 2,64 L 2,6 Q 2,2 6,2 Z" transform="translate(0.5,1)"/>
  <path class="key-body" d="M 6,2 L 64,2 Q 68,2 68,6 L 68,64 Q 68,68 64,68 L 6,68 Q 2,68 2,64 L 2,6 Q 2,2 6,2 Z" stroke="#fb923c" stroke-width="1.5"/>
  <text x="35" y="36" text-anchor="middle" dominant-baseline="central" font-family="system-ui, -apple-system, sans-serif" font-size="14" class="key-label">32</text>
</g>
<g transform="translate(353.8827189967201,253.3451083455013) rotate(20,35.00000000000003,35)">
  <path class="key-shadow" d="M 6,2 L 64,2 Q 68,2 68,6 L 68,64 Q 68,68 64,68 L 6,68 Q 2,68 2,64 L 2,6 Q 2,2 6,2 Z" transform="translate(0.5,1)"/>
  <path class="key-body" d="M 6,2 L 64,2 Q 68,2 68,6 L 68,64 Q 68,68 64,68 L 6,68 Q 2,68 2,64 L 2,6 Q 2,2 6,2 Z" stroke="#fb923c" stroke-width="1.5"/>
  <text x="35" y="36" text-anchor="middle" dominant-baseline="central" font-family="system-ui, -apple-system, sans-serif" font-size="14" class="key-label">33</text>
</g>
<g transform="translate(422.0553434550137,270.70867003279693) rotate(20,35,35)">
  <path class="key-shadow" d="M 6,2 L 64,2 Q 68,2 68,6 L 68,64 Q 68,68 64,68 L 6,68 Q 2,68 2,64 L 2,6 Q 2,2 6,2 Z" transform="translate(0.5,1)"/>
  <path class="key-body" d="M 6,2 L 64,2 Q 68,2 68,6 L 68,64 Q 68,68 64,68 L 6,68 Q 2,68 2,64 L 2,6 Q 2,2 6,2 Z" stroke="#fb923c" stroke-width="1.5"/>
  <text x="35" y="36" text-anchor="middle" dominant-baseline="central" font-family="system-ui, -apple-system, sans-serif" font-size="14" class="key-label">34</text>
</g>
<g transform="translate(757.944656544987,270.70867003279693) rotate(-20,35,35)">
  <path class="key-shadow" d="M 6,2 L 64,2 Q 68,2 68,6 L 68,64 Q 68,68 64,68 L 6,68 Q 2,68 2,64 L 2,6 Q 2,2 6,2 Z" transform="translate(0.5,1)"/>
  <path class="key-body" d="M 6,2 L 64,2 Q 68,2 68,6 L 68,64 Q 68,68 64,68 L 6,68 Q 2,68 2,64 L 2,6 Q 2,2 6,2 Z" stroke="#38bdf8" stroke-width="1.5"/>
  <text x="35" y="36" text-anchor="middle" dominant-baseline="central" font-family="system-ui, -apple-system, sans-serif" font-size="14" class="key-label">35</text>
</g>
<g transform="translate(826.117281003282,253.3451083455013) rotate(-20,35,35)">
  <path class="key-shadow" d="M 6,2 L 64,2 Q 68,2 68,6 L 68,64 Q 68,68 64,68 L 6,68 Q 2,68 2,64 L 2,6 Q 2,2 6,2 Z" transform="translate(0.5,1)"/>
  <path class="key-body" d="M 6,2 L 64,2 Q 68,2 68,6 L 68,64 Q 68,68 64,68 L 6,68 Q 2,68 2,64 L 2,6 Q 2,2 6,2 Z" stroke="#38bdf8" stroke-width="1.5"/>
  <text x="35" y="36" text-anchor="middle" dominant-baseline="central" font-family="system-ui, -apple-system, sans-serif" font-size="14" class="key-label">36</text>
</g>
<g transform="translate(912.2606232424811,281.5854451331811) rotate(-20,35,34.99999999999932)">
  <path class="key-shadow" d="M 6,2 L 64,2 Q 68,2 68,6 L 68,64 Q 68,68 64,68 L 6,68 Q 2,68 2,64 L 2,6 Q 2,2 6,2 Z" transform="translate(0.5,1)"/>
  <path class="key-body" d="M 6,2 L 64,2 Q 68,2 68,6 L 68,64 Q 68,68 64,68 L 6,68 Q 2,68 2,64 L 2,6 Q 2,2 6,2 Z" stroke="#38bdf8" stroke-width="1.5"/>
  <text x="35" y="36" text-anchor="middle" dominant-baseline="central" font-family="system-ui, -apple-system, sans-serif" font-size="14" class="key-label">37</text>
</g>
<g transform="translate(328.72957820597503,318.6825518569806) rotate(20,35,35)">
  <path class="key-shadow" d="M 6,2 L 64,2 Q 68,2 68,6 L 68,64 Q 68,68 64,68 L 6,68 Q 2,68 2,64 L 2,6 Q 2,2 6,2 Z" transform="translate(0.5,1)"/>
  <path class="key-body" d="M 6,2 L 64,2 Q 68,2 68,6 L 68,64 Q 68,68 64,68 L 6,68 Q 2,68 2,64 L 2,6 Q 2,2 6,2 Z" stroke="#fb923c" stroke-width="1.5"/>
  <text x="35" y="36" text-anchor="middle" dominant-baseline="central" font-family="system-ui, -apple-system, sans-serif" font-size="14" class="key-label">38</text>
</g>
<g transform="translate(396.9022026642686,336.0461135442755) rotate(20,35,35)">
  <path class="key-shadow" d="M 6,2 L 64,2 Q 68,2 68,6 L 68,64 Q 68,68 64,68 L 6,68 Q 2,68 2,64 L 2,6 Q 2,2 6,2 Z" transform="translate(0.5,1)"/>
  <path class="key-body" d="M 6,2 L 64,2 Q 68,2 68,6 L 68,64 Q 68,68 64,68 L 6,68 Q 2,68 2,64 L 2,6 Q 2,2 6,2 Z" stroke="#fb923c" stroke-width="1.5"/>
  <text x="35" y="36" text-anchor="middle" dominant-baseline="central" font-family="system-ui, -apple-system, sans-serif" font-size="14" class="key-label">39</text>
</g>
<g transform="translate(783.09779733573,336.0461135442762) rotate(-20,35,34.99999999999932)">
  <path class="key-shadow" d="M 6,2 L 64,2 Q 68,2 68,6 L 68,64 Q 68,68 64,68 L 6,68 Q 2,68 2,64 L 2,6 Q 2,2 6,2 Z" transform="translate(0.5,1)"/>
  <path class="key-body" d="M 6,2 L 64,2 Q 68,2 68,6 L 68,64 Q 68,68 64,68 L 6,68 Q 2,68 2,64 L 2,6 Q 2,2 6,2 Z" stroke="#38bdf8" stroke-width="1.5"/>
  <text x="35" y="36" text-anchor="middle" dominant-baseline="central" font-family="system-ui, -apple-system, sans-serif" font-size="14" class="key-label">40</text>
</g>
<g transform="translate(851.2704217940251,318.6825518569806) rotate(-20,35,35)">
  <path class="key-shadow" d="M 6,2 L 64,2 Q 68,2 68,6 L 68,64 Q 68,68 64,68 L 6,68 Q 2,68 2,64 L 2,6 Q 2,2 6,2 Z" transform="translate(0.5,1)"/>
  <path class="key-body" d="M 6,2 L 64,2 Q 68,2 68,6 L 68,64 Q 68,68 64,68 L 6,68 Q 2,68 2,64 L 2,6 Q 2,2 6,2 Z" stroke="#38bdf8" stroke-width="1.5"/>
  <text x="35" y="36" text-anchor="middle" dominant-baseline="central" font-family="system-ui, -apple-system, sans-serif" font-size="14" class="key-label">41</text>
</g>
<text x="625.5" y="453" text-anchor="middle" dominant-baseline="central" font-family="system-ui, -apple-system, sans-serif" font-size="11" class="footer">Built with Shield Wizard for ZMK</text>
</svg>